<svg width="64" height="64" viewBox="0 0 64 64" fill="none" xmlns="http://www.w3.org/2000/svg">
<path d="M0.5 16C0.5 7.43959 7.43959 0.5 16 0.5H48C56.5604 0.5 63.5 7.43959 63.5 16V48C63.5 56.5604 56.5604 63.5 48 63.5H16C7.43959 63.5 0.5 56.5604 0.5 48V16Z" stroke="#1565D8" stroke-opacity="0.1"/>
<path d="M40.8309 17.1846C42.2466 17.1846 43.3947 18.2586 43.3947 19.583V49.5636C43.3947 50.888 42.2466 51.9621 40.8309 51.9621H23.2049C21.7892 51.9621 20.6411 50.888 20.6411 49.5636V19.583C20.6411 18.2586 21.7892 17.1846 23.2049 17.1846H40.8309Z" fill="#D1E7FF"/>
<path d="M36.0491 30.0552C36.6628 30.0552 37.1772 30.4876 37.2437 31.058L38.101 38.4243C38.1787 39.0891 37.6219 39.67 36.9064 39.67H27.1288C26.4134 39.67 25.8565 39.0891 25.9343 38.4243L26.7915 31.058C26.858 30.4876 27.3724 30.0552 27.9861 30.0552H36.0491Z" fill="#B9DCFF"/>
<path d="M40.952 17.1872C43.0139 17.2769 42.9045 20.1827 40.8404 20.1827H32.4986C27.7198 20.1827 23.8458 23.8068 23.8458 28.2774V51.9621H23.2049C21.789 51.9621 20.6411 50.8883 20.6411 49.5636V19.583C20.6411 18.2584 21.789 17.1846 23.2049 17.1846C23.3209 17.1846 40.858 17.1831 40.952 17.1872Z" fill="#E8F3FF"/>
<path d="M43.3947 46.7156V49.5637C43.3947 50.8881 42.2466 51.9622 40.8309 51.9622H23.2049C21.7892 51.9622 20.6411 50.8881 20.6411 49.5637V46.7156H43.3947Z" fill="#B9DCFF"/>
<path d="M23.8458 46.7156V49.5726C23.8458 51.5259 20.6411 51.6257 20.6411 49.5637V46.7156H23.8458Z" fill="#D1E7FF"/>
<path d="M36.0494 32.3037C32.1671 32.3037 28.9937 35.0379 28.5839 38.5602C28.5105 39.1916 27.9404 39.67 27.2614 39.67H27.1288C26.4134 39.67 25.8565 39.0891 25.9343 38.4243L26.7915 31.058C26.858 30.4876 27.3724 30.0552 27.9861 30.0552H36.0492C36.6624 30.0552 37.1774 30.4872 37.2437 31.0576C37.3213 31.7241 36.7635 32.3037 36.0494 32.3037Z" fill="#D1E7FF"/>
<path d="M40.8307 16.585H23.2047C21.4376 16.585 20 17.9299 20 19.583V49.5636C20 51.2168 21.4376 52.5617 23.2047 52.5617H40.8307C42.5978 52.5617 44.0354 51.2168 44.0354 49.5636V19.583C44.0354 17.9299 42.5978 16.585 40.8307 16.585ZM40.8307 51.3625H23.2047C22.1445 51.3625 21.2819 50.5556 21.2819 49.5636V19.583C21.2819 18.5911 22.1445 17.7842 23.2047 17.7842H40.8307C41.8909 17.7842 42.7535 18.5911 42.7535 19.583V46.1159H24.4065C24.0525 46.1159 23.7655 46.3843 23.7655 46.7155C23.7655 47.0466 24.0525 47.3151 24.4065 47.3151H42.7535V49.5636C42.7535 50.5556 41.8909 51.3625 40.8307 51.3625ZM33.4598 49.1889C33.4598 49.52 33.1728 49.7885 32.8189 49.7885H31.2165C30.8626 49.7885 30.5756 49.52 30.5756 49.1889C30.5756 48.8577 30.8626 48.5893 31.2165 48.5893H32.8189C33.1728 48.5893 33.4598 48.8577 33.4598 49.1889ZM27.1289 40.2697H36.9065C38.0027 40.2697 38.857 39.3781 38.7384 38.3592L37.8812 30.9933C37.7792 30.1169 36.9916 29.456 36.0493 29.456H35.456V28.3459C35.4559 26.5723 33.9135 25.1294 32.0177 25.1294C30.1219 25.1294 28.5795 26.5723 28.5795 28.3459V29.4559H27.9862C27.0438 29.4559 26.2563 30.1168 26.1543 30.9933L25.2971 38.3592C25.1784 39.3786 26.0334 40.2697 27.1289 40.2697ZM26.5714 38.489L27.4285 31.1231C27.4596 30.8563 27.6993 30.6552 27.9861 30.6552H28.5794V31.5908C28.5794 31.9219 28.8664 32.1904 29.2204 32.1904C29.5743 32.1904 29.8613 31.9219 29.8613 31.5908V28.3459C29.8613 27.2336 30.8286 26.3287 32.0176 26.3287C33.2067 26.3287 34.1739 27.2336 34.1739 28.3459V29.456H31.4015C31.0476 29.456 30.7606 29.7245 30.7606 30.0556C30.7606 30.3868 31.0476 30.6552 31.4015 30.6552H34.1739V31.5908C34.1739 31.9219 34.4609 32.1904 34.8149 32.1904C35.1688 32.1904 35.4558 31.9219 35.4558 31.5908V30.6552H36.0492C36.336 30.6552 36.5756 30.8564 36.6067 31.1231L37.4639 38.489C37.4999 38.799 37.2418 39.0704 36.9063 39.0704H27.1289C26.795 39.0704 26.5352 38.8002 26.5714 38.489Z" fill="#007FFC"/>
</svg>
