<svg width="64" height="64" viewBox="0 0 64 64" fill="none" xmlns="http://www.w3.org/2000/svg">
<path d="M0.5 16C0.5 7.43959 7.43959 0.5 16 0.5H48C56.5604 0.5 63.5 7.43959 63.5 16V48C63.5 56.5604 56.5604 63.5 48 63.5H16C7.43959 63.5 0.5 56.5604 0.5 48V16Z" stroke="#1565D8" stroke-opacity="0.1"/>
<path d="M49.0268 30.9342C49.7952 32.1791 48.8738 33.7427 47.3379 33.7981C41.7296 34.0035 36.0113 35.3138 30.62 37.8936L28.8373 38.856C28.8373 38.8636 28.8127 38.8166 33.1526 45.8776C33.5508 46.5237 33.3144 47.349 32.6246 47.7222L31.2185 48.4815C30.5287 48.854 29.6457 48.6329 29.2475 47.9868L24.9187 40.9727L24.216 41.3527C22.8355 42.0977 21.0705 41.6555 20.2733 40.3641L17.0268 35.1038C16.2304 33.8124 16.7031 32.1612 18.0836 31.4154L24.4876 27.9563C29.3817 24.9946 33.529 21.073 36.6378 16.4599C37.4575 15.2434 39.3651 15.2787 40.1335 16.5236L42.9112 21.0253C44.5072 20.1634 46.5487 20.6753 47.4701 22.1684C48.3914 23.6614 47.8442 25.5705 46.2482 26.4325L49.0268 30.9342Z" fill="#D1E7FF"/>
<path d="M47.47 22.1684C48.3914 23.6614 47.8441 25.5705 46.2481 26.4325L42.9111 21.0253C44.5071 20.1633 46.5486 20.6753 47.47 22.1684Z" fill="#D1E7FF"/>
<path d="M40.1335 16.5236C40.5168 17.1453 40.4922 17.9165 40.068 18.5144C36.6459 23.3382 32.0592 27.697 26.4497 31.0923L18.9465 35.145C18.4313 35.4238 18.0235 35.8098 17.7383 36.2558L17.0268 35.1038C16.2304 33.8123 16.7031 32.1611 18.0836 31.4153L24.4876 27.9562C29.3817 24.9945 33.529 21.073 36.6378 16.4599C37.4574 15.2434 39.3651 15.2787 40.1335 16.5236Z" fill="#E8F3FF"/>
<path d="M24.4876 27.9563L30.62 37.8936C29.3911 38.557 25.4431 40.689 24.216 41.3527C22.8355 42.0977 21.0705 41.6555 20.2733 40.364L17.0268 35.1038C16.2304 33.8124 16.7031 32.1612 18.0836 31.4154L24.4876 27.9563Z" fill="#B9DCFF"/>
<path d="M26.4296 31.1036C18.281 35.5044 18.821 35.1982 18.5581 35.3896C18.063 35.7499 17.3405 35.6119 17.0267 35.1038C16.2303 33.8123 16.703 32.1611 18.0835 31.4154L24.4875 27.9563L26.4296 31.1036Z" fill="#D1E7FF"/>
<path d="M30.0046 40.7554C27.7247 41.9904 29.4021 41.0816 26.0899 42.8698L24.9186 40.9728L28.8373 38.8569L30.0046 40.7554Z" fill="#B9DCFF"/>
<path d="M47.2705 25.575C47.0061 25.9146 46.6624 26.2091 46.2481 26.4325L42.9111 21.0255C43.3254 20.8014 43.77 20.6709 44.2163 20.626C44.3842 20.8982 47.1239 25.3377 47.2705 25.575Z" fill="#B9DCFF"/>
<path d="M47.0977 26.6093C49.5992 24.6979 48.7351 20.9178 45.6094 20.1344C44.7927 19.9297 43.9472 19.9723 43.1721 20.2485L40.6885 16.2242C39.6779 14.5865 37.1713 14.5431 36.0952 16.1399C33.0404 20.6726 28.9708 24.5277 24.1392 27.4532C23.8641 27.6195 23.7621 27.9631 23.9249 28.2427C23.951 28.2875 28.0649 34.9525 28.0921 34.9967C28.269 35.2833 28.6608 35.3818 28.9677 35.2162C29.2742 35.0506 29.3792 34.6838 29.2023 34.3971L25.3445 28.146C29.9515 25.2648 34.0317 21.4503 37.1796 16.7795C37.7426 15.9439 39.0513 15.9699 39.5783 16.8238L48.4713 31.2337C48.999 32.0887 48.3664 33.1609 47.313 33.1992C41.4036 33.4146 35.6179 34.8286 30.3281 37.3597C30.3056 37.3704 24.3081 40.6102 23.8951 40.8333C22.823 41.4124 21.4473 41.0675 20.8285 40.0646L17.582 34.8038C16.963 33.801 17.3317 32.514 18.4037 31.935L22.311 29.8245C22.6176 29.659 22.7226 29.2922 22.5456 29.0055C22.3686 28.7186 21.9765 28.6204 21.6701 28.786L17.7627 30.8964C16.0786 31.806 15.4995 33.8279 16.4718 35.4035L19.7184 40.6641C20.6909 42.2398 22.8521 42.7814 24.5362 41.8718L24.684 41.7919L28.6924 48.2869C29.2681 49.2198 30.5412 49.5393 31.539 49.0005L32.9449 48.2411C33.9424 47.7024 34.2836 46.5113 33.7077 45.5781L30.8668 40.975C30.6898 40.6882 30.2978 40.5899 29.9913 40.7555C29.6847 40.9211 29.5797 41.2878 29.7567 41.5746L32.5975 46.1777C32.8191 46.5368 32.6879 46.9952 32.3039 47.2025L30.8981 47.9619C30.5142 48.1692 30.0242 48.0463 29.8026 47.6872L25.7943 41.1923L30.9264 38.4203C35.9484 36.0199 41.5353 34.6099 47.363 34.3975C49.3827 34.3238 50.5907 32.2689 49.5815 30.634L47.0977 26.6093ZM46.9147 22.4679C47.5474 23.4932 47.3201 24.7656 46.4442 25.5503L43.8255 21.307C44.9735 20.992 46.2717 21.426 46.9147 22.4679ZM53.1837 19.802L51.5253 20.6978C51.2186 20.8634 50.8267 20.765 50.6498 20.4783C50.4727 20.1915 50.5778 19.8248 50.8844 19.6592L52.5428 18.7635C52.8496 18.5978 53.2414 18.6962 53.4183 18.9829C53.5953 19.2697 53.4903 19.6364 53.1837 19.802ZM46.0516 16.3844L46.4561 14.9726C46.5477 14.6527 46.899 14.463 47.2411 14.5486C47.5831 14.6344 47.786 14.9632 47.6943 15.283L47.2899 16.6948C47.1984 17.0139 46.8478 17.2046 46.5048 17.1188C46.1629 17.0331 45.96 16.7043 46.0516 16.3844V16.3844ZM54.4347 26.2047C54.3579 26.4726 54.099 26.6493 53.8159 26.6493C53.6999 26.6493 53.781 26.6617 52.1404 26.2504C51.7985 26.1646 51.5955 25.8359 51.6872 25.516C51.7788 25.1961 52.1303 25.0065 52.4722 25.092L53.9814 25.4703C54.3233 25.556 54.5263 25.8848 54.4347 26.2047Z" fill="#007FFC"/>
</svg>
