<svg width="64" height="64" viewBox="0 0 64 64" fill="none" xmlns="http://www.w3.org/2000/svg">
<path d="M16 0.5H48C56.5604 0.5 63.5 7.43959 63.5 16V48C63.5 56.5604 56.5604 63.5 48 63.5H16C7.43959 63.5 0.5 56.5604 0.5 48V16C0.5 7.43959 7.43959 0.5 16 0.5Z" stroke="#1565D8" stroke-opacity="0.1"/>
<path d="M48.8875 25.8462V45.5073C48.8875 46.8314 47.7397 47.9051 46.3243 47.9051H18.1293C16.7139 47.9051 15.5661 46.8314 15.5661 45.5073C15.5661 26.9202 15.5644 30.4021 15.5717 25.8462H48.8875Z" fill="#D1E7FF"/>
<path d="M48.8875 25.8462V30.3871C48.8875 31.3698 48.0454 32.1838 46.995 32.1878C46.9833 32.1879 17.4788 32.1879 17.4575 32.1878C16.4074 32.1835 15.566 31.3695 15.566 30.3871C15.566 29.0765 15.565 29.9813 15.5716 25.8462H48.8875Z" fill="#B9DCFF"/>
<path d="M38.7147 37.1894V47.905H25.7385V37.1894C25.7385 35.8653 26.8864 34.7915 28.3017 34.7915H36.1515C37.5669 34.7915 38.7147 35.8653 38.7147 37.1894Z" fill="#E8F3FF"/>
<path d="M50.8097 25.8461C50.8097 28.2452 48.7301 30.1923 46.164 30.1923C43.5984 30.1923 41.5182 28.2462 41.5182 25.8461C41.5182 28.2462 39.438 30.1923 36.8724 30.1923C34.3068 30.1923 32.2266 28.2462 32.2266 25.8461C32.2266 28.2462 30.1464 30.1923 27.5809 30.1923C25.0153 30.1923 22.9351 28.2462 22.9351 25.8461C22.9311 28.2305 20.8333 30.1923 18.2893 30.1923C15.7485 30.1923 13.6475 28.233 13.6435 25.8461C13.6435 22.0688 13.6325 22.3012 13.6716 22.1278C13.71 21.9577 13.4435 22.5602 17.4739 13.8581C17.6773 13.4197 18.1395 13.1357 18.6498 13.1357H45.8035C46.3137 13.1357 46.7759 13.4197 46.9794 13.8581C51.0127 22.5667 50.7432 21.9575 50.7817 22.1278C50.8207 22.3009 50.8097 22.0647 50.8097 25.8461Z" fill="#B9DCFF"/>
<path d="M50.8099 25.8461C50.8099 28.2452 48.7303 30.1922 46.1641 30.1922C43.5985 30.1922 41.5184 28.2462 41.5184 25.8461C41.5184 28.2462 39.4382 30.1922 36.8726 30.1922C34.307 30.1922 32.2268 28.2462 32.2268 25.8461C32.2268 28.2462 30.1466 30.1922 27.581 30.1922C25.0154 30.1922 22.9352 28.2462 22.9352 25.8461C22.9312 28.2305 20.8334 30.1922 18.2895 30.1922C15.7486 30.1922 13.6477 28.2329 13.6437 25.8461C13.6373 22.0482 13.6383 22.2761 13.6717 22.1279H50.7819C50.8209 22.3009 50.8099 22.0648 50.8099 25.8461Z" fill="#A2D0FF"/>
<path d="M45.4573 16.3391C37.321 15.2915 29.1096 16.6351 22.4681 21.3169C21.7205 21.8439 20.8093 22.1279 19.8733 22.1279H13.6716C13.7101 21.9578 13.4436 22.5603 17.474 13.8581C17.6774 13.4197 18.1396 13.1357 18.6498 13.1357H45.8036C46.3143 13.1357 46.7762 13.4194 46.9793 13.8578L47.1578 14.2431C47.6581 15.3232 46.7038 16.4996 45.4573 16.3391Z" fill="#D1E7FF"/>
<path d="M49.5282 32.8435V45.5074C49.5282 47.1602 48.0909 48.5048 46.3242 48.5048H18.1291C16.3625 48.5048 14.9252 47.1602 14.9252 45.5074V32.8435C14.9252 32.5124 15.2121 32.244 15.566 32.244C15.9198 32.244 16.2068 32.5124 16.2068 32.8435V45.5074C16.2068 46.4991 17.0691 47.3059 18.1291 47.3059H25.0978V37.1897C25.0978 35.5369 26.5351 34.1923 28.3018 34.1923H36.1516C37.9182 34.1923 39.3555 35.5369 39.3555 37.1897V44.908C39.3555 45.239 39.0686 45.5074 38.7147 45.5074C38.3609 45.5074 38.0739 45.239 38.0739 44.908V37.1897C38.0739 36.1981 37.2115 35.3912 36.1516 35.3912H28.3018C27.2418 35.3912 26.3794 36.1981 26.3794 37.1897V47.3059H31.5859V37.8641C31.5859 37.533 31.8728 37.2646 32.2267 37.2646C32.5806 37.2646 32.8675 37.533 32.8675 37.8641V47.3059H46.3242C47.3842 47.3059 48.2466 46.4991 48.2466 45.5074V32.8435C48.2466 32.5124 48.5335 32.244 48.8874 32.244C49.2413 32.244 49.5282 32.5123 49.5282 32.8435ZM17.168 22.1278C17.168 22.4588 17.4549 22.7273 17.8088 22.7273C52.6735 22.7273 50.9449 22.7856 51.1996 22.6028C51.3328 22.507 51.4198 22.3687 51.4437 22.2107C51.4794 21.9698 51.7094 22.5623 47.2325 12.8972C47.1309 12.678 46.9 12.5361 46.6445 12.5361H17.8087C17.5533 12.5361 17.3222 12.6781 17.2207 12.8972L13.0556 21.8894C12.9819 22.0484 13.0027 21.796 13.0027 25.8469C13.0073 28.5734 15.3789 30.7917 18.2893 30.7917C20.2901 30.7917 22.0362 29.7433 22.9337 28.2022C24.9383 31.6485 30.2183 31.6523 32.2266 28.2045C34.2333 31.6495 39.511 31.6503 41.5182 28.2045C42.415 29.7443 44.1613 30.7917 46.1639 30.7917C49.079 30.7917 51.4505 28.5731 51.4505 25.846C51.4505 25.5149 51.1636 25.2465 50.8097 25.2465C50.4558 25.2465 50.1689 25.5149 50.1689 25.846C50.1689 27.9119 48.3723 29.5927 46.1639 29.5927C43.9556 29.5927 42.1589 27.9119 42.1589 25.846C42.1589 25.5149 41.872 25.2465 41.5182 25.2465C41.1643 25.2465 40.8774 25.5149 40.8774 25.846C40.8774 27.9119 39.0807 29.5927 36.8724 29.5927C34.664 29.5927 32.8674 27.9119 32.8674 25.846C32.8674 25.5149 32.5805 25.2465 32.2266 25.2465C31.8727 25.2465 31.5858 25.5149 31.5858 25.846C31.5858 27.9119 29.7892 29.5927 27.5808 29.5927C25.4216 29.5927 23.5758 27.9693 23.5758 25.816C23.5758 25.4849 23.2889 25.2165 22.935 25.2165C22.5812 25.2165 22.2942 25.4849 22.2942 25.816C22.2942 27.9511 20.46 29.5927 18.2893 29.5927C16.0844 29.5927 14.2877 27.9115 14.2843 25.846V22.252L18.2294 13.7351H46.2239L49.8337 21.5283H17.8088C17.4548 21.5283 17.168 21.7966 17.168 22.1278Z" fill="#007FFC"/>
</svg>
